# xmcd CD database file
#
# Track frame offsets:
#	150
#	12951
#	31320
#	45563
#	63294
#	77037
#	87642
#	106224
#	125644
#	140818
#	155112
#	171296
#
# Disc length: 2457 seconds
#
# Revision: 0
# Processed by: cddbd v1.5.2PL0 Copyright (c) Steve Scherf et al.
# Submitted via: CDex 1.70beta2
#
DISCID=a309970c
DTITLE=John Miller - still carrying a flame
DYEAR=2010
DGENRE=Country
TTITLE0=Take It From Somebody Who Knows
TTITLE1=I'm Still Carrying A Flame
TTITLE2=Heavy Hangs The Head
TTITLE3=My Dreaming Party
TTITLE4=My Baby Ain't My Baby Anymore
TTITLE5=Mama Says No
TTITLE6=I Just Can't Live Without You
TTITLE7=Take Me Back To San Francisco
TTITLE8=Let Me Go
TTITLE9=Tiny Sweetheart Roses
TTITLE10=Feeling Sorry For Ourselves
TTITLE11=Trucking On Back To You
EXTD=YEAR: 2010
EXTT0=
EXTT1=
EXTT2=
EXTT3=
EXTT4=
EXTT5=
EXTT6=
EXTT7=
EXTT8=
EXTT9=
EXTT10=
EXTT11=
PLAYORDER=
